<svg width="14" height="14" viewBox="0 0 14 14" fill="none" xmlns="http://www.w3.org/2000/svg">
<path d="M11.9 2H2.1C1.54305 2 1.0089 2.22125 0.615076 2.61508C0.221249 3.0089 0 3.54305 0 4.1V10.4C0 10.957 0.221249 11.4911 0.615076 11.8849C1.0089 12.2788 1.54305 12.5 2.1 12.5H11.9C12.457 12.5 12.9911 12.2788 13.3849 11.8849C13.7788 11.4911 14 10.957 14 10.4V4.1C14 3.54305 13.7788 3.0089 13.3849 2.61508C12.9911 2.22125 12.457 2 11.9 2ZM12.6 10.4C12.6 10.5857 12.5262 10.7637 12.395 10.895C12.2637 11.0263 12.0857 11.1 11.9 11.1H2.1C1.91435 11.1 1.7363 11.0263 1.60503 10.895C1.47375 10.7637 1.4 10.5857 1.4 10.4V6.2H12.6V10.4ZM12.6 4.8H1.4V4.1C1.4 3.91435 1.47375 3.7363 1.60503 3.60503C1.7363 3.47375 1.91435 3.4 2.1 3.4H11.9C12.0857 3.4 12.2637 3.47375 12.395 3.60503C12.5262 3.7363 12.6 3.91435 12.6 4.1V4.8Z" fill="#595B97"/>
</svg>
