<svg width="70" height="70" viewBox="0 0 70 70" fill="none" xmlns="http://www.w3.org/2000/svg">
<circle cx="35" cy="35" r="34.75" fill="url(#paint0_linear_287_360)" stroke="url(#paint1_linear_287_360)" stroke-width="0.5"/>
<circle cx="35" cy="35" r="28.625" fill="url(#paint2_linear_287_360)" stroke="url(#paint3_linear_287_360)" stroke-width="0.75"/>
<circle cx="35" cy="35" r="21.625" fill="url(#paint4_linear_287_360)" stroke="url(#paint5_linear_287_360)" stroke-width="0.75"/>
<path d="M28.125 28.8438H41.875" stroke="white" stroke-width="1.71875" stroke-miterlimit="10" stroke-linecap="round" stroke-linejoin="round"/>
<path d="M31.5625 28.8438V27.2969C31.5625 25.3984 33.1015 23.8594 35 23.8594C36.8985 23.8594 38.4375 25.3984 38.4375 27.2969V28.8438" stroke="white" stroke-width="1.71875" stroke-miterlimit="10" stroke-linecap="round" stroke-linejoin="round"/>
<path d="M38.4375 32.2812C38.4375 34.1797 36.8985 35.7188 35 35.7188C33.1015 35.7188 31.5625 34.1797 31.5625 32.2812" stroke="white" stroke-width="1.71875" stroke-miterlimit="10" stroke-linecap="round" stroke-linejoin="round"/>
<path d="M41.875 28.8438L43.5802 42.2048C43.5891 42.2759 43.5938 42.3484 43.5938 42.4219C43.5938 43.3711 42.8242 44.1406 41.875 44.1406H28.125C27.1758 44.1406 26.4062 43.3711 26.4062 42.4219C26.4062 42.3484 26.4108 42.2759 26.4198 42.2048L28.125 28.8438" stroke="white" stroke-width="1.71875" stroke-miterlimit="10" stroke-linecap="round" stroke-linejoin="round"/>
<defs>
<linearGradient id="paint0_linear_287_360" x1="0" y1="0" x2="70" y2="70" gradientUnits="userSpaceOnUse">
<stop stop-color="#A3D9FE" stop-opacity="0.6"/>
<stop offset="1" stop-color="#B5D0F5" stop-opacity="0.2"/>
</linearGradient>
<linearGradient id="paint1_linear_287_360" x1="35" y1="0" x2="35" y2="70" gradientUnits="userSpaceOnUse">
<stop stop-color="#D8ECFE"/>
<stop offset="1" stop-color="#70BDFF" stop-opacity="0"/>
</linearGradient>
<linearGradient id="paint2_linear_287_360" x1="6" y1="6" x2="64" y2="64" gradientUnits="userSpaceOnUse">
<stop stop-color="#89C4FE"/>
<stop offset="1" stop-color="#84B4F4" stop-opacity="0.2"/>
</linearGradient>
<linearGradient id="paint3_linear_287_360" x1="35" y1="6" x2="35" y2="64" gradientUnits="userSpaceOnUse">
<stop stop-color="#DAEEFF"/>
<stop offset="1" stop-color="#70BDFF" stop-opacity="0"/>
</linearGradient>
<linearGradient id="paint4_linear_287_360" x1="13" y1="13" x2="57" y2="57" gradientUnits="userSpaceOnUse">
<stop stop-color="#75AFFE"/>
<stop offset="1" stop-color="#2C90F5"/>
</linearGradient>
<linearGradient id="paint5_linear_287_360" x1="35" y1="13" x2="35" y2="57" gradientUnits="userSpaceOnUse">
<stop stop-color="#CBE7FF"/>
<stop offset="1" stop-color="#70BDFF" stop-opacity="0"/>
</linearGradient>
</defs>
</svg>
